<svg width="31" height="29" viewBox="0 0 31 29" fill="none" xmlns="http://www.w3.org/2000/svg">
<path d="M1 1H9.7C11.2383 1 12.7135 1.61107 13.8012 2.69878C14.8889 3.78649 15.5 5.26174 15.5 6.8V27.1C15.5 25.9463 15.0417 24.8399 14.2259 24.0241C13.4101 23.2083 12.3037 22.75 11.15 22.75H1V1Z" fill="#F8F7F7" stroke="black" stroke-width="2" stroke-linecap="round" stroke-linejoin="round"/>
<path d="M29.9999 1H21.2999C19.7616 1 18.2864 1.61107 17.1987 2.69878C16.1109 3.78649 15.4999 5.26174 15.4999 6.8V27.1C15.4999 25.9463 15.9582 24.8399 16.774 24.0241C17.5897 23.2083 18.6962 22.75 19.8499 22.75H29.9999V1Z" fill="#F8F7F7" stroke="black" stroke-width="2" stroke-linecap="round" stroke-linejoin="round"/>
</svg>
